<mxfile host="app.diagrams.net" modified="2021-10-24T19:20:00.195Z" agent="5.0 (Windows)" etag="8cR2RBrG1891NHy3_y7M" version="15.5.9" type="github">
  <diagram name="Page-1" id="edf60f1a-56cd-e834-aa8a-f176f3a09ee4">
    <mxGraphModel dx="1886" dy="932" grid="1" gridSize="10" guides="1" tooltips="1" connect="1" arrows="1" fold="1" page="1" pageScale="1" pageWidth="1100" pageHeight="850" math="0" shadow="0">
      <root>
        <mxCell id="0" />
        <mxCell id="1" parent="0" />
        <mxCell id="93R-Coq5i8s_tRny_Z_y-17" style="edgeStyle=none;curved=1;rounded=0;sketch=1;hachureGap=4;orthogonalLoop=1;jettySize=auto;html=1;entryX=0.5;entryY=0.16;entryDx=0;entryDy=0;entryPerimeter=0;fontFamily=Verdana;fontSize=15;endArrow=open;startSize=14;endSize=14;sourcePerimeterSpacing=8;targetPerimeterSpacing=8;strokeColor=#788AA3;fontColor=#46495D;" edge="1" parent="1" source="93R-Coq5i8s_tRny_Z_y-4" target="93R-Coq5i8s_tRny_Z_y-7">
          <mxGeometry relative="1" as="geometry" />
        </mxCell>
        <mxCell id="93R-Coq5i8s_tRny_Z_y-4" value="INFORME A PRIMEIRA NOTA:" style="shape=display;whiteSpace=wrap;html=1;sketch=1;hachureGap=4;pointerEvents=0;fontFamily=Verdana;fontSize=12;size=0.16666666666666666;fillColor=#B2C9AB;strokeColor=#788AA3;fontColor=#46495D;" vertex="1" parent="1">
          <mxGeometry x="360" y="160" width="120" height="40" as="geometry" />
        </mxCell>
        <mxCell id="93R-Coq5i8s_tRny_Z_y-16" style="edgeStyle=none;curved=1;rounded=0;sketch=1;hachureGap=4;orthogonalLoop=1;jettySize=auto;html=1;entryX=0;entryY=0;entryDx=60;entryDy=0;entryPerimeter=0;fontFamily=Verdana;fontSize=15;endArrow=open;startSize=14;endSize=14;sourcePerimeterSpacing=8;targetPerimeterSpacing=8;strokeColor=#788AA3;fontColor=#46495D;" edge="1" parent="1" source="93R-Coq5i8s_tRny_Z_y-6" target="93R-Coq5i8s_tRny_Z_y-4">
          <mxGeometry relative="1" as="geometry" />
        </mxCell>
        <mxCell id="93R-Coq5i8s_tRny_Z_y-6" value="&lt;h6&gt;&lt;font style=&quot;font-size: 15px&quot;&gt;INÍCIO&lt;/font&gt;&lt;/h6&gt;" style="ellipse;whiteSpace=wrap;html=1;sketch=1;hachureGap=4;pointerEvents=0;fontFamily=Verdana;fontSize=15;fillColor=#B2C9AB;strokeColor=#788AA3;fontColor=#46495D;" vertex="1" parent="1">
          <mxGeometry x="360" y="80" width="120" height="40" as="geometry" />
        </mxCell>
        <mxCell id="93R-Coq5i8s_tRny_Z_y-18" style="edgeStyle=none;curved=1;rounded=0;sketch=1;hachureGap=4;orthogonalLoop=1;jettySize=auto;html=1;entryX=0;entryY=0;entryDx=60;entryDy=0;entryPerimeter=0;fontFamily=Verdana;fontSize=15;endArrow=open;startSize=14;endSize=14;sourcePerimeterSpacing=8;targetPerimeterSpacing=8;strokeColor=#788AA3;fontColor=#46495D;" edge="1" parent="1" source="93R-Coq5i8s_tRny_Z_y-7" target="93R-Coq5i8s_tRny_Z_y-12">
          <mxGeometry relative="1" as="geometry" />
        </mxCell>
        <mxCell id="93R-Coq5i8s_tRny_Z_y-7" value="NOTA 01" style="shape=manualInput;whiteSpace=wrap;html=1;sketch=1;hachureGap=4;pointerEvents=0;fontFamily=Verdana;fontSize=12;size=13;fillColor=#B2C9AB;strokeColor=#788AA3;fontColor=#46495D;" vertex="1" parent="1">
          <mxGeometry x="360" y="230" width="120" height="50" as="geometry" />
        </mxCell>
        <mxCell id="93R-Coq5i8s_tRny_Z_y-19" style="edgeStyle=none;curved=1;rounded=0;sketch=1;hachureGap=4;orthogonalLoop=1;jettySize=auto;html=1;entryX=0.492;entryY=0.18;entryDx=0;entryDy=0;entryPerimeter=0;fontFamily=Verdana;fontSize=15;endArrow=open;startSize=14;endSize=14;sourcePerimeterSpacing=8;targetPerimeterSpacing=8;strokeColor=#788AA3;fontColor=#46495D;" edge="1" parent="1" source="93R-Coq5i8s_tRny_Z_y-12" target="93R-Coq5i8s_tRny_Z_y-13">
          <mxGeometry relative="1" as="geometry" />
        </mxCell>
        <mxCell id="93R-Coq5i8s_tRny_Z_y-12" value="INFORME A PRIMEIRA NOTA:" style="shape=display;whiteSpace=wrap;html=1;sketch=1;hachureGap=4;pointerEvents=0;fontFamily=Verdana;fontSize=12;size=0.16666666666666666;fillColor=#B2C9AB;strokeColor=#788AA3;fontColor=#46495D;" vertex="1" parent="1">
          <mxGeometry x="360" y="320" width="120" height="40" as="geometry" />
        </mxCell>
        <mxCell id="93R-Coq5i8s_tRny_Z_y-20" style="edgeStyle=none;curved=1;rounded=0;sketch=1;hachureGap=4;orthogonalLoop=1;jettySize=auto;html=1;entryX=0;entryY=0;entryDx=60;entryDy=0;entryPerimeter=0;fontFamily=Verdana;fontSize=15;endArrow=open;startSize=14;endSize=14;sourcePerimeterSpacing=8;targetPerimeterSpacing=8;strokeColor=#788AA3;fontColor=#46495D;" edge="1" parent="1" source="93R-Coq5i8s_tRny_Z_y-13" target="93R-Coq5i8s_tRny_Z_y-14">
          <mxGeometry relative="1" as="geometry" />
        </mxCell>
        <mxCell id="93R-Coq5i8s_tRny_Z_y-13" value="NOTA 02" style="shape=manualInput;whiteSpace=wrap;html=1;sketch=1;hachureGap=4;pointerEvents=0;fontFamily=Verdana;fontSize=12;size=13;fillColor=#B2C9AB;strokeColor=#788AA3;fontColor=#46495D;" vertex="1" parent="1">
          <mxGeometry x="360" y="390" width="120" height="50" as="geometry" />
        </mxCell>
        <mxCell id="93R-Coq5i8s_tRny_Z_y-21" style="edgeStyle=none;curved=1;rounded=0;sketch=1;hachureGap=4;orthogonalLoop=1;jettySize=auto;html=1;fontFamily=Verdana;fontSize=15;endArrow=open;startSize=14;endSize=14;sourcePerimeterSpacing=8;targetPerimeterSpacing=8;entryX=0.5;entryY=0.18;entryDx=0;entryDy=0;entryPerimeter=0;strokeColor=#788AA3;fontColor=#46495D;" edge="1" parent="1" source="93R-Coq5i8s_tRny_Z_y-14" target="93R-Coq5i8s_tRny_Z_y-15">
          <mxGeometry relative="1" as="geometry" />
        </mxCell>
        <mxCell id="93R-Coq5i8s_tRny_Z_y-14" value="INFORME A PRIMEIRA NOTA:" style="shape=display;whiteSpace=wrap;html=1;sketch=1;hachureGap=4;pointerEvents=0;fontFamily=Verdana;fontSize=12;size=0.16666666666666666;fillColor=#B2C9AB;strokeColor=#788AA3;fontColor=#46495D;" vertex="1" parent="1">
          <mxGeometry x="360" y="480" width="120" height="40" as="geometry" />
        </mxCell>
        <mxCell id="93R-Coq5i8s_tRny_Z_y-23" style="edgeStyle=none;curved=1;rounded=0;sketch=1;hachureGap=4;orthogonalLoop=1;jettySize=auto;html=1;entryX=0;entryY=0.5;entryDx=0;entryDy=0;fontFamily=Verdana;fontSize=12;endArrow=open;startSize=14;endSize=14;sourcePerimeterSpacing=8;targetPerimeterSpacing=8;strokeColor=#788AA3;fontColor=#46495D;" edge="1" parent="1" source="93R-Coq5i8s_tRny_Z_y-15" target="93R-Coq5i8s_tRny_Z_y-22">
          <mxGeometry relative="1" as="geometry" />
        </mxCell>
        <mxCell id="93R-Coq5i8s_tRny_Z_y-15" value="NOTA 03" style="shape=manualInput;whiteSpace=wrap;html=1;sketch=1;hachureGap=4;pointerEvents=0;fontFamily=Verdana;fontSize=12;size=13;fillColor=#B2C9AB;strokeColor=#788AA3;fontColor=#46495D;" vertex="1" parent="1">
          <mxGeometry x="360" y="550" width="120" height="50" as="geometry" />
        </mxCell>
        <mxCell id="93R-Coq5i8s_tRny_Z_y-25" style="edgeStyle=none;curved=1;rounded=0;sketch=1;hachureGap=4;orthogonalLoop=1;jettySize=auto;html=1;entryX=0;entryY=0;entryDx=60;entryDy=40;entryPerimeter=0;fontFamily=Verdana;fontSize=12;endArrow=open;startSize=14;endSize=14;sourcePerimeterSpacing=8;targetPerimeterSpacing=8;strokeColor=#788AA3;fontColor=#46495D;" edge="1" parent="1" target="93R-Coq5i8s_tRny_Z_y-30">
          <mxGeometry relative="1" as="geometry">
            <mxPoint x="630" y="550" as="sourcePoint" />
          </mxGeometry>
        </mxCell>
        <mxCell id="93R-Coq5i8s_tRny_Z_y-22" value="MÉDIA=(NOTA01+NOTA02+NOTA03)/3" style="rounded=0;whiteSpace=wrap;html=1;sketch=1;hachureGap=4;pointerEvents=0;fontFamily=Verdana;fontSize=12;fillColor=#B2C9AB;strokeColor=#788AA3;fontColor=#46495D;" vertex="1" parent="1">
          <mxGeometry x="530" y="560" width="200" height="40" as="geometry" />
        </mxCell>
        <mxCell id="93R-Coq5i8s_tRny_Z_y-42" style="edgeStyle=none;curved=1;rounded=1;sketch=1;hachureGap=4;orthogonalLoop=1;jettySize=auto;html=1;fontFamily=Architects Daughter;fontSource=https%3A%2F%2Ffonts.googleapis.com%2Fcss%3Ffamily%3DArchitects%2BDaughter;fontSize=16;fontColor=#46495D;endArrow=open;startSize=14;endSize=14;sourcePerimeterSpacing=8;targetPerimeterSpacing=8;strokeColor=#788AA3;fillColor=#B2C9AB;entryX=0;entryY=0.5;entryDx=0;entryDy=0;exitX=1;exitY=0.5;exitDx=0;exitDy=0;exitPerimeter=0;" edge="1" parent="1" source="93R-Coq5i8s_tRny_Z_y-24" target="93R-Coq5i8s_tRny_Z_y-37">
          <mxGeometry relative="1" as="geometry">
            <mxPoint x="712" y="266" as="sourcePoint" />
          </mxGeometry>
        </mxCell>
        <mxCell id="93R-Coq5i8s_tRny_Z_y-24" value="REPROVADO" style="shape=display;whiteSpace=wrap;html=1;sketch=1;hachureGap=4;pointerEvents=0;fontFamily=Verdana;fontSize=12;size=0.16666666666666666;fillColor=#B2C9AB;strokeColor=#788AA3;fontColor=#46495D;" vertex="1" parent="1">
          <mxGeometry x="570" y="246" width="120" height="40" as="geometry" />
        </mxCell>
        <mxCell id="93R-Coq5i8s_tRny_Z_y-29" style="edgeStyle=none;curved=1;rounded=0;sketch=1;hachureGap=4;orthogonalLoop=1;jettySize=auto;html=1;entryX=0;entryY=0.5;entryDx=0;entryDy=0;entryPerimeter=0;fontFamily=Verdana;fontSize=12;endArrow=open;startSize=14;endSize=14;sourcePerimeterSpacing=8;targetPerimeterSpacing=8;strokeColor=#788AA3;fontColor=#46495D;" edge="1" parent="1" source="93R-Coq5i8s_tRny_Z_y-26" target="93R-Coq5i8s_tRny_Z_y-27">
          <mxGeometry relative="1" as="geometry" />
        </mxCell>
        <mxCell id="93R-Coq5i8s_tRny_Z_y-41" style="edgeStyle=none;curved=1;rounded=1;sketch=1;hachureGap=4;orthogonalLoop=1;jettySize=auto;html=1;fontFamily=Architects Daughter;fontSource=https%3A%2F%2Ffonts.googleapis.com%2Fcss%3Ffamily%3DArchitects%2BDaughter;fontSize=16;fontColor=#46495D;endArrow=open;startSize=14;endSize=14;sourcePerimeterSpacing=8;targetPerimeterSpacing=8;strokeColor=#788AA3;fillColor=#B2C9AB;entryX=0;entryY=0;entryDx=60;entryDy=40;entryPerimeter=0;exitX=0;exitY=0.75;exitDx=0;exitDy=0;" edge="1" parent="1" source="93R-Coq5i8s_tRny_Z_y-36" target="93R-Coq5i8s_tRny_Z_y-24">
          <mxGeometry relative="1" as="geometry">
            <mxPoint x="560" y="322" as="sourcePoint" />
          </mxGeometry>
        </mxCell>
        <mxCell id="93R-Coq5i8s_tRny_Z_y-26" value="MÉDIA MAIOR OU IGUAL" style="rhombus;whiteSpace=wrap;html=1;sketch=1;hachureGap=4;pointerEvents=0;fontFamily=Verdana;fontSize=12;fillColor=#B2C9AB;strokeColor=#788AA3;fontColor=#46495D;" vertex="1" parent="1">
          <mxGeometry x="590" y="334" width="80" height="80" as="geometry" />
        </mxCell>
        <mxCell id="93R-Coq5i8s_tRny_Z_y-43" style="edgeStyle=none;curved=1;rounded=1;sketch=1;hachureGap=4;orthogonalLoop=1;jettySize=auto;html=1;entryX=0.5;entryY=1;entryDx=0;entryDy=0;fontFamily=Architects Daughter;fontSource=https%3A%2F%2Ffonts.googleapis.com%2Fcss%3Ffamily%3DArchitects%2BDaughter;fontSize=16;fontColor=#46495D;endArrow=open;startSize=14;endSize=14;sourcePerimeterSpacing=8;targetPerimeterSpacing=8;strokeColor=#788AA3;fillColor=#B2C9AB;" edge="1" parent="1" target="93R-Coq5i8s_tRny_Z_y-37">
          <mxGeometry relative="1" as="geometry">
            <mxPoint x="794" y="342" as="sourcePoint" />
          </mxGeometry>
        </mxCell>
        <mxCell id="93R-Coq5i8s_tRny_Z_y-27" value="APROVADO" style="shape=display;whiteSpace=wrap;html=1;sketch=1;hachureGap=4;pointerEvents=0;fontFamily=Verdana;fontSize=12;size=0.16666666666666666;fillColor=#B2C9AB;strokeColor=#788AA3;fontColor=#46495D;" vertex="1" parent="1">
          <mxGeometry x="734" y="354" width="120" height="40" as="geometry" />
        </mxCell>
        <mxCell id="93R-Coq5i8s_tRny_Z_y-40" style="edgeStyle=none;curved=1;rounded=1;sketch=1;hachureGap=4;orthogonalLoop=1;jettySize=auto;html=1;entryX=0.5;entryY=1;entryDx=0;entryDy=0;fontFamily=Architects Daughter;fontSource=https%3A%2F%2Ffonts.googleapis.com%2Fcss%3Ffamily%3DArchitects%2BDaughter;fontSize=16;fontColor=#46495D;endArrow=open;startSize=14;endSize=14;sourcePerimeterSpacing=8;targetPerimeterSpacing=8;strokeColor=#788AA3;fillColor=#B2C9AB;" edge="1" parent="1" target="93R-Coq5i8s_tRny_Z_y-26">
          <mxGeometry relative="1" as="geometry">
            <mxPoint x="630" y="450" as="sourcePoint" />
          </mxGeometry>
        </mxCell>
        <mxCell id="93R-Coq5i8s_tRny_Z_y-30" value="MÉDIA DAS NOTAS" style="shape=display;whiteSpace=wrap;html=1;sketch=1;hachureGap=4;pointerEvents=0;fontFamily=Verdana;fontSize=12;size=0.16666666666666666;fillColor=#B2C9AB;strokeColor=#788AA3;fontColor=#46495D;" vertex="1" parent="1">
          <mxGeometry x="570" y="462" width="120" height="40" as="geometry" />
        </mxCell>
        <mxCell id="93R-Coq5i8s_tRny_Z_y-32" value="Text" style="text;html=1;strokeColor=none;fillColor=none;align=center;verticalAlign=middle;whiteSpace=wrap;rounded=0;sketch=1;hachureGap=4;pointerEvents=0;fontFamily=Verdana;fontSize=12;fontColor=#46495D;" vertex="1" parent="1">
          <mxGeometry x="680" y="580" width="60" height="30" as="geometry" />
        </mxCell>
        <mxCell id="93R-Coq5i8s_tRny_Z_y-33" value="SIM" style="text;html=1;strokeColor=none;fillColor=none;align=center;verticalAlign=middle;whiteSpace=wrap;rounded=0;sketch=1;hachureGap=4;pointerEvents=0;fontFamily=Verdana;fontSize=12;fontColor=#46495D;" vertex="1" parent="1">
          <mxGeometry x="660" y="344" width="60" height="30" as="geometry" />
        </mxCell>
        <mxCell id="93R-Coq5i8s_tRny_Z_y-36" value="NÃO" style="text;html=1;strokeColor=none;fillColor=none;align=center;verticalAlign=middle;whiteSpace=wrap;rounded=0;sketch=1;hachureGap=4;pointerEvents=0;fontFamily=Verdana;fontSize=12;fontColor=#46495D;" vertex="1" parent="1">
          <mxGeometry x="630" y="304" width="60" height="30" as="geometry" />
        </mxCell>
        <mxCell id="93R-Coq5i8s_tRny_Z_y-37" value="FIM" style="ellipse;sketch=1;hachureGap=4;pointerEvents=0;fontFamily=Verdana;fontSize=15;fillColor=#B2C9AB;strokeColor=#788AA3;fontColor=#46495D;whiteSpace=wrap;html=1;" vertex="1" parent="1">
          <mxGeometry x="734" y="246" width="120" height="40" as="geometry" />
        </mxCell>
      </root>
    </mxGraphModel>
  </diagram>
</mxfile>
